<?xml version="1.0" standalone="no"?>
<!DOCTYPE svg PUBLIC "-//W3C//DTD SVG 20010904//EN"
 "http://www.w3.org/TR/2001/REC-SVG-20010904/DTD/svg10.dtd">
<svg version="1.0" xmlns="http://www.w3.org/2000/svg"
 width="512.000000pt" height="512.000000pt" viewBox="0 0 512.000000 512.000000"
 preserveAspectRatio="xMidYMid meet">
<metadata>
Created by potrace 1.11, written by Peter Selinger 2001-2013
</metadata>
<g transform="translate(0.000000,512.000000) scale(0.100000,-0.100000)"
fill="#000000" stroke="none">
<path d="M60 4490 c10 -6 11 -10 3 -10 -7 0 -14 1 -15 2 -2 1 -13 -4 -25 -11
l-23 -12 0 -2229 0 -2230 2560 0 2560 0 0 2233 0 2232 -35 1 c-34 1 -47 -10
-22 -19 6 -3 -10 -3 -38 0 -57 6 -65 10 -45 24 11 7 7 8 -14 5 -16 -3 -33 -10
-36 -17 -6 -8 -9 -7 -13 2 -3 8 -6 9 -6 3 -1 -11 -107 -11 -118 0 -4 3 -11 6
-17 6 -6 0 -4 -5 4 -10 11 -7 7 -10 -17 -10 -20 0 -33 5 -33 13 0 8 -4 7 -10
-3 -6 -10 -10 -11 -10 -2 0 7 -13 12 -32 12 -22 0 -29 -3 -20 -9 8 -5 -18 -6
-60 -4 -54 3 -69 1 -58 -7 16 -11 1 -10 -60 5 -57 14 -70 15 -70 6 0 -5 6 -12
12 -14 7 -3 -9 -3 -37 0 -57 6 -65 10 -45 24 11 7 7 8 -14 5 -16 -3 -33 -10
-36 -17 -6 -8 -9 -7 -13 2 -3 8 -6 9 -6 3 -1 -11 -107 -11 -118 0 -4 3 -11 6
-17 6 -6 0 -4 -5 4 -10 11 -7 7 -10 -17 -10 -20 0 -33 5 -33 13 0 8 -4 7 -10
-3 -6 -10 -10 -11 -10 -2 0 7 -13 12 -32 12 -22 0 -29 -3 -20 -9 8 -5 -18 -6
-60 -4 -54 3 -69 1 -58 -7 16 -11 1 -10 -60 5 -57 14 -70 15 -70 6 0 -5 6 -12
13 -14 6 -3 -10 -3 -38 0 -57 6 -65 10 -45 24 11 7 7 8 -14 5 -16 -3 -33 -10
-36 -17 -6 -8 -9 -7 -13 2 -3 8 -6 9 -6 3 -1 -11 -107 -11 -118 0 -4 3 -11 6
-17 6 -6 0 -4 -5 4 -10 11 -7 7 -10 -17 -10 -20 0 -33 5 -33 13 0 8 -4 7 -10
-3 -6 -10 -10 -11 -10 -2 0 7 -13 12 -32 12 -22 0 -29 -3 -20 -9 8 -5 -18 -6
-60 -4 -54 3 -69 1 -58 -7 16 -11 1 -10 -60 5 -57 14 -70 15 -70 6 0 -5 6 -12
13 -14 6 -3 -10 -3 -38 0 -57 6 -65 10 -45 24 11 7 7 8 -14 5 -16 -3 -33 -10
-36 -17 -6 -8 -9 -7 -13 2 -3 8 -6 9 -6 3 -1 -11 -107 -11 -118 0 -4 3 -11 6
-17 6 -6 0 -4 -5 4 -10 11 -7 7 -10 -17 -10 -20 0 -33 5 -33 13 0 8 -4 7 -10
-3 -6 -10 -10 -11 -10 -2 0 7 -13 12 -32 12 -22 0 -29 -3 -20 -9 8 -5 -18 -6
-60 -4 -54 3 -69 1 -58 -7 16 -11 1 -10 -60 5 -57 14 -70 15 -70 6 0 -5 6 -12
13 -14 6 -3 -10 -3 -38 0 -57 6 -65 10 -45 24 11 7 7 8 -14 5 -16 -3 -33 -10
-36 -17 -6 -8 -9 -7 -13 2 -3 8 -6 9 -6 3 -1 -11 -107 -11 -118 0 -4 3 -11 6
-17 6 -6 0 -4 -5 4 -10 11 -7 7 -10 -17 -10 -20 0 -33 5 -33 13 0 8 -4 7 -10
-3 -6 -10 -10 -11 -10 -2 0 7 -13 12 -32 12 -22 0 -29 -3 -20 -9 8 -5 -18 -6
-60 -4 -54 3 -69 1 -58 -7 16 -11 1 -10 -60 5 -57 14 -70 15 -70 6 0 -5 6 -12
13 -14 6 -3 -10 -3 -38 0 -57 6 -65 10 -45 24 11 7 7 8 -14 5 -16 -3 -33 -10
-36 -17 -6 -8 -9 -7 -13 2 -3 8 -6 9 -6 3 -1 -11 -107 -11 -118 0 -4 3 -11 6
-17 6 -6 0 -4 -5 4 -10 11 -7 7 -10 -17 -10 -20 0 -33 5 -33 13 0 8 -4 7 -10
-3 -6 -10 -10 -11 -10 -2 0 7 -13 12 -32 12 -22 0 -29 -3 -20 -9 8 -5 -18 -6
-60 -4 -54 3 -69 1 -58 -7 16 -11 1 -10 -60 5 -57 14 -70 15 -70 6 0 -5 6 -12
13 -14 6 -3 -10 -3 -38 0 -57 6 -65 10 -45 24 11 7 7 8 -14 5 -16 -3 -33 -10
-36 -17 -6 -8 -9 -7 -13 2 -3 8 -6 9 -6 3 -1 -11 -107 -11 -118 0 -4 3 -11 6
-17 6 -6 0 -4 -5 4 -10 11 -7 7 -10 -17 -10 -20 0 -33 5 -33 13 0 8 -4 7 -10
-3 -6 -10 -10 -11 -10 -2 0 7 -13 12 -32 12 -22 0 -29 -3 -20 -9 8 -5 -18 -6
-60 -4 -54 3 -69 1 -58 -7 16 -11 1 -10 -60 5 -57 14 -70 15 -70 6 0 -5 6 -12
13 -14 6 -3 -10 -3 -38 0 -57 6 -65 10 -45 24 11 7 7 8 -14 5 -16 -3 -33 -10
-36 -17 -6 -8 -9 -7 -13 2 -3 8 -6 9 -6 3 -1 -11 -107 -11 -118 0 -4 3 -11 6
-17 6 -6 0 -4 -5 4 -10 11 -7 7 -10 -17 -10 -20 0 -33 5 -33 13 0 8 -4 7 -10
-3 -6 -10 -10 -11 -10 -2 0 7 -13 12 -32 12 -22 0 -29 -3 -20 -9 8 -5 -18 -6
-60 -4 -54 3 -69 1 -58 -7 12 -8 9 -9 -14 -6 -16 3 -31 8 -35 12 -3 4 2 4 12
1 10 -4 16 -3 13 1 -3 5 0 9 7 10 7 0 21 3 32 6 11 2 24 5 29 5 17 2 -2 12
-30 17 -22 3 -25 2 -14 -6z m1447 -997 c-4 -274 -7 -904 -7 -1400 l0 -903
-275 0 -275 0 0 1400 0 1400 282 0 281 0 -6 -497z m2424 -903 c268 -767 489
-1396 489 -1398 0 -1 -136 -1 -302 0 l-301 3 -82 245 -82 245 -559 3 -559 2
-83 -250 -84 -250 -298 0 -299 0 24 68 c12 37 157 450 320 917 163 468 368
1055 455 1305 87 250 163 467 169 483 l11 27 346 -2 346 -3 489 -1395z"/>
<path d="M2907 2782 c-103 -306 -187 -560 -187 -564 0 -5 171 -8 380 -8 l379
0 -190 562 c-104 309 -191 563 -192 565 -2 1 -87 -248 -190 -555z"/>
<path d="M700 4490 c10 -7 11 -10 3 -11 -7 -1 -17 -3 -23 -4 -5 -1 -16 -3 -22
-4 -10 -1 -9 -4 1 -10 9 -6 23 -4 40 7 14 10 26 16 28 15 2 -2 8 -3 15 -3 20
0 1 11 -28 16 -22 3 -25 2 -14 -6z"/>
<path d="M1340 4490 c10 -7 11 -10 3 -11 -7 -1 -17 -3 -23 -4 -5 -1 -16 -3
-22 -4 -10 -1 -9 -4 1 -10 9 -6 23 -4 40 7 14 10 26 16 28 15 2 -2 8 -3 15 -3
20 0 1 11 -28 16 -22 3 -25 2 -14 -6z"/>
<path d="M1980 4490 c10 -7 11 -10 3 -11 -7 -1 -17 -3 -23 -4 -5 -1 -16 -3
-22 -4 -10 -1 -9 -4 1 -10 9 -6 23 -4 40 7 14 10 26 16 28 15 2 -2 8 -3 15 -3
20 0 1 11 -28 16 -22 3 -25 2 -14 -6z"/>
<path d="M2620 4490 c10 -7 11 -10 3 -11 -7 -1 -17 -3 -23 -4 -5 -1 -16 -3
-22 -4 -10 -1 -9 -4 1 -10 9 -6 23 -4 40 7 14 10 26 16 28 15 2 -2 8 -3 15 -3
20 0 1 11 -28 16 -22 3 -25 2 -14 -6z"/>
<path d="M3260 4490 c10 -7 11 -10 3 -11 -7 -1 -17 -3 -23 -4 -5 -1 -16 -3
-22 -4 -10 -1 -9 -4 1 -10 9 -6 23 -4 40 7 14 10 26 16 28 15 2 -2 8 -3 15 -3
20 0 1 11 -28 16 -22 3 -25 2 -14 -6z"/>
<path d="M3900 4490 c10 -7 11 -10 3 -11 -7 -1 -17 -3 -23 -4 -5 -1 -16 -3
-22 -4 -10 -1 -9 -4 1 -10 9 -6 23 -4 40 7 14 10 26 16 28 15 2 -2 8 -3 15 -3
20 0 1 11 -28 16 -22 3 -25 2 -14 -6z"/>
<path d="M4540 4490 c10 -7 11 -10 3 -11 -7 -1 -17 -3 -23 -4 -5 -1 -16 -3
-22 -4 -10 -1 -9 -4 1 -10 9 -6 23 -4 40 7 14 10 26 16 28 15 2 -2 8 -3 15 -3
20 0 1 11 -28 16 -22 3 -25 2 -14 -6z"/>
<path d="M370 4480 c0 -5 5 -10 10 -10 6 0 10 5 10 10 0 6 -4 10 -10 10 -5 0
-10 -4 -10 -10z"/>
<path d="M1010 4480 c0 -5 5 -10 10 -10 6 0 10 5 10 10 0 6 -4 10 -10 10 -5 0
-10 -4 -10 -10z"/>
<path d="M1650 4480 c0 -5 5 -10 10 -10 6 0 10 5 10 10 0 6 -4 10 -10 10 -5 0
-10 -4 -10 -10z"/>
<path d="M2290 4480 c0 -5 5 -10 10 -10 6 0 10 5 10 10 0 6 -4 10 -10 10 -5 0
-10 -4 -10 -10z"/>
<path d="M2930 4480 c0 -5 5 -10 10 -10 6 0 10 5 10 10 0 6 -4 10 -10 10 -5 0
-10 -4 -10 -10z"/>
<path d="M3570 4480 c0 -5 5 -10 10 -10 6 0 10 5 10 10 0 6 -4 10 -10 10 -5 0
-10 -4 -10 -10z"/>
<path d="M4210 4480 c0 -5 5 -10 10 -10 6 0 10 5 10 10 0 6 -4 10 -10 10 -5 0
-10 -4 -10 -10z"/>
<path d="M4850 4480 c0 -5 5 -10 10 -10 6 0 10 5 10 10 0 6 -4 10 -10 10 -5 0
-10 -4 -10 -10z"/>
</g>
</svg>
